<?xml version="1.0" standalone="no"?>
<!DOCTYPE svg PUBLIC "-//W3C//DTD SVG 20010904//EN"
 "http://www.w3.org/TR/2001/REC-SVG-20010904/DTD/svg10.dtd">
<svg version="1.0" xmlns="http://www.w3.org/2000/svg"
 width="1024.000000pt" height="1024.000000pt" viewBox="0 0 1024.000000 1024.000000"
 preserveAspectRatio="xMidYMid meet">
<metadata>
Created by potrace 1.11, written by Peter Selinger 2001-2013
</metadata>
<g transform="translate(0.000000,1024.000000) scale(0.100000,-0.100000)"
fill="#000000" stroke="none">
<path d="M0 5120 l0 -5120 5120 0 5120 0 0 5120 0 5120 -5120 0 -5120 0 0
-5120z m5244 4706 c72 -42 105 -116 85 -190 -19 -69 -60 -109 -140 -136 l-45
-16 203 -84 c112 -47 203 -89 203 -94 0 -5 -46 -132 -102 -282 -55 -151 -99
-276 -97 -278 2 -2 111 24 242 58 l237 63 0 -289 c0 -271 -1 -289 -17 -284
-119 35 -455 118 -459 113 -3 -3 29 -97 71 -209 42 -112 88 -236 103 -275 l26
-73 63 0 c35 0 79 -6 98 -14 40 -17 75 -68 75 -111 0 -38 -33 -92 -65 -107
-14 -6 -25 -14 -25 -17 0 -3 57 -14 128 -24 273 -38 352 -67 436 -158 63 -67
86 -126 86 -215 0 -52 -9 -86 -56 -206 -31 -79 -75 -195 -99 -258 -24 -63
-131 -342 -239 -619 l-195 -504 29 -27 c38 -35 39 -71 4 -99 -15 -12 -33 -21
-40 -21 -15 0 -19 -45 -8 -99 l7 -31 99 0 c142 0 194 -27 205 -108 7 -49 -16
-96 -60 -122 l-32 -20 71 0 c93 0 148 -27 181 -90 13 -24 23 -57 23 -74 -1
-52 -35 -112 -81 -143 -42 -28 -44 -28 -221 -31 l-178 -3 -10 -41 c-79 -291
-100 -637 -60 -955 66 -518 209 -1019 427 -1498 l57 -125 68 0 c55 0 72 -4 88
-20 37 -37 26 -66 -65 -165 l-85 -93 83 -79 c143 -137 297 -243 527 -363 207
-108 280 -195 268 -322 -10 -96 -107 -200 -201 -215 l-41 -6 52 -17 c94 -31
160 -92 182 -171 6 -19 10 -96 10 -171 l0 -138 -1935 0 -1935 0 0 138 c0 75 5
154 11 176 20 72 113 153 199 171 l34 8 -56 17 c-103 32 -171 107 -184 203
-17 123 61 221 256 321 226 116 394 231 536 368 l84 80 -85 93 c-88 96 -99
121 -71 160 11 16 29 20 89 23 l75 4 65 142 c205 445 338 885 411 1357 60 383
49 725 -32 1044 l-18 70 -190 5 c-187 5 -191 5 -232 33 -148 97 -74 305 108
307 l45 0 -34 17 c-95 47 -92 166 4 213 35 17 62 20 168 20 69 0 128 4 131 9
3 4 8 34 12 65 7 55 6 56 -18 56 -34 0 -68 35 -68 70 0 29 6 38 44 64 17 12 1
56 -278 775 -275 708 -296 768 -296 825 0 87 23 147 83 212 83 91 154 118 397
154 195 28 191 27 150 49 -72 38 -88 126 -33 183 32 33 78 48 153 48 l55 0
103 281 c57 154 102 282 100 284 -2 1 -111 -26 -243 -61 -132 -35 -241 -64
-242 -64 -2 0 -3 128 -3 285 0 221 3 285 13 285 6 0 115 -27 241 -60 126 -33
231 -58 233 -56 2 2 -43 129 -100 282 -57 153 -102 282 -101 285 2 3 94 43
205 89 l201 84 -40 12 c-97 28 -152 93 -152 178 0 54 16 89 58 129 65 63 182
73 266 23z"/>
</g>
</svg>
