<svg id="Layer_1"  width="20px" height="20px" data-name="Layer 1" xmlns="http://www.w3.org/2000/svg" viewBox="0 0 1024 1024"><title>check-mark</title><path d="M963.77,153.44c-44.68-24.06-94.51,22.33-123.72,49.83-67,65.29-123.7,140.89-187.28,209.62C582.32,488.49,517,564.09,444.86,638c-41.23,41.24-85.91,85.91-113.4,137.46C269.61,715.3,216.34,650,147.61,596.74,97.78,558.94,15.31,531.45,17,622.51,20.46,741.08,125.27,868.22,202.59,949c32.65,34.36,75.61,70.44,125.43,72.16,60.14,3.44,122-68.73,158.08-108.25,63.58-68.72,115.12-146,173.54-216.49C735.24,603.61,812.56,512.55,886.45,418,932.84,359.62,1078.89,215.29,963.77,153.44Z" style="fill:#2fc900"/></svg>