<?xml version="1.0" encoding="utf-8"?>
<!-- Generator: Adobe Illustrator 22.0.0, SVG Export Plug-In . SVG Version: 6.00 Build 0)  -->
<svg version="1.1" id="Layer_1" xmlns="http://www.w3.org/2000/svg" xmlns:xlink="http://www.w3.org/1999/xlink" x="0px" y="0px"
	 viewBox="0 0 1024 1024" style="enable-background:new 0 0 1024 1024;" xml:space="preserve">
<style type="text/css">
	.st0{opacity:1;fill:#FFFFFF;}
</style>
<path class="st0" d="M788.9,133.4H235.1C105.2,133.4,0,238.7,0,368.5v522.1h788.9c129.8,0,235.1-105.2,235.1-235.1v-287
	C1024,238.7,918.8,133.4,788.9,133.4z M552.8,675.7H238.2c-26.3,0-47.6-21.3-47.6-47.6c0-26.3,21.3-47.6,47.6-47.6h314.6
	c26.3,0,47.6,21.3,47.6,47.6C600.4,654.4,579.1,675.7,552.8,675.7z M779.1,437H238.2c-26.3,0-47.6-21.3-47.6-47.6
	c0-26.3,21.3-47.6,47.6-47.6h540.9c26.3,0,47.6,21.3,47.6,47.6C826.7,415.7,805.4,437,779.1,437z"/>
</svg>
