<?xml version="1.0" encoding="utf-8"?>
<!-- Generator: Adobe Illustrator 23.0.1, SVG Export Plug-In . SVG Version: 6.00 Build 0)  -->
<svg version="1.1" id="Layer_1" xmlns="http://www.w3.org/2000/svg" xmlns:xlink="http://www.w3.org/1999/xlink" x="0px" y="0px"
	 viewBox="0 0 1024 1024" style="enable-background:new 0 0 1024 1024;" xml:space="preserve">
<style type="text/css">
	.st0{fill:url(#SVGID_1_);}
	.st1{fill:url(#SVGID_2_);}
</style>
<g>
	<linearGradient id="SVGID_1_" gradientUnits="userSpaceOnUse" x1="799.0303" y1="890.024" x2="799.0303" y2="133.9759">
		<stop  offset="0" style="stop-color:#6AACFF"/>
		<stop  offset="1" style="stop-color:#1980FF"/>
	</linearGradient>
	<path class="st0" d="M1024,543.52H775.63c4.25-181.01,55.59-201.56,120.07-207.42l24.87-3.08V133.98l-28.66,1.54
		c-84.2,4.74-177.29,19.92-239.4,96.59c-54.44,67.21-78.44,177.02-78.44,345.58v312.35H1024V543.52z"/>
	<linearGradient id="SVGID_2_" gradientUnits="userSpaceOnUse" x1="224.9697" y1="890.024" x2="224.9697" y2="133.9759">
		<stop  offset="0" style="stop-color:#6AACFF"/>
		<stop  offset="1" style="stop-color:#1980FF"/>
	</linearGradient>
	<path class="st1" d="M449.94,890.02V543.52H204.89c4.25-181.01,53.93-201.56,118.41-207.42l23.21-3.08V133.98l-27.01,1.54
		c-84.2,4.74-178.12,19.92-240.23,96.59C24.83,299.31,0,409.12,0,577.68l0,312.35H449.94z"/>
</g>
</svg>
